<svg xmlns="http://www.w3.org/2000/svg" xmlns:xlink="http://www.w3.org/1999/xlink" id="Group_79" data-name="Group 79" width="63.119" height="64.434" viewBox="0 0 63.119 64.434"><defs><clipPath id="clip-path"><rect id="Rectangle_95" data-name="Rectangle 95" width="63.118" height="64.434" fill="#1e1e1e"></rect></clipPath></defs><g id="Group_34" data-name="Group 34" clip-path="url(#clip-path)"><path id="Path_31" data-name="Path 31" d="M82.943.075a15.64,15.64,0,0,0,3.09.55c28.414,5.286,35.31,43.585,11.113,58.814-4.4,2.769-11.885,5.534-17.129,4.9a2.317,2.317,0,0,1-.938-4.111c1.044-.684,2.282-.328,3.417-.437a27.637,27.637,0,0,0,24.228-34.289C104.143,14.78,94.9,6.063,83.857,4.731c-1.207-.146-2.547-.027-3.663-.192a2.216,2.216,0,0,1-1.736-3.317A9.068,9.068,0,0,1,79.773.034a24.142,24.142,0,0,1,3.171.041" transform="translate(-48.773 0)" fill="#1e1e1e"></path><path id="Path_32" data-name="Path 32" d="M75.323,45.838a6.75,6.75,0,0,1-.028,12.645c-.114,1.817.169,3.838.011,5.628a2.212,2.212,0,0,1-4.377.375c-.166-.987.144-5.752-.056-6.073A6.75,6.75,0,0,1,70.9,45.768L70.9,33.948a2.215,2.215,0,0,1,4.372-.242Zm-2.674,4.049c-2.585.419-2.273,4.864.78,4.5,2.776-.331,2.392-5.014-.78-4.5" transform="translate(-41.506 -19.94)" fill="#1e1e1e"></path><path id="Path_33" data-name="Path 33" d="M51.884,157.1c-.038.022-.047.148-.169.2a2.175,2.175,0,0,1-1.433,0c-.114-.042-.129-.215-.218-.249-1.185-.45-3.819-1.18-4.5-2.222a2.229,2.229,0,0,1,2.042-3.43,40.165,40.165,0,0,1,4.618,1.862c1.555,1.066,1.171,2.944-.344,3.84" transform="translate(-28.215 -94.487)" fill="#1e1e1e"></path><path id="Path_34" data-name="Path 34" d="M7.849,44.482a2.331,2.331,0,0,1,2.342,2.482,47.828,47.828,0,0,1-1.9,4.582,2.217,2.217,0,0,1-3.445.141c-.972-1.322-.309-2.6.214-3.924s1.134-3.149,2.788-3.281" transform="translate(-2.714 -27.76)" fill="#1e1e1e"></path><path id="Path_35" data-name="Path 35" d="M1.824,74.856a2.211,2.211,0,0,1,2.652,1.963,22.133,22.133,0,0,1-.095,4.45A2.215,2.215,0,0,1,.07,80.813a23.5,23.5,0,0,1,.062-4.346,2.239,2.239,0,0,1,1.692-1.611" transform="translate(0 -46.7)" fill="#1e1e1e"></path><path id="Path_36" data-name="Path 36" d="M9.477,113.168a2.331,2.331,0,0,1-2.567.1,13.681,13.681,0,0,1-2.349-4.95,2.215,2.215,0,0,1,4.159-1.268,33.956,33.956,0,0,1,1.413,3.406,2.642,2.642,0,0,1-.657,2.709" transform="translate(-2.841 -66.083)" fill="#1e1e1e"></path><path id="Path_37" data-name="Path 37" d="M22.858,133.472a2.325,2.325,0,0,1,1.681.317,37.78,37.78,0,0,1,2.926,2.856,2.284,2.284,0,0,1-2.971,3.247,16.8,16.8,0,0,1-2.955-2.965,2.188,2.188,0,0,1,1.318-3.455" transform="translate(-13.188 -83.283)" fill="#1e1e1e"></path><path id="Path_38" data-name="Path 38" d="M27.412,20.165a2.537,2.537,0,0,1,.48,2.669,11.054,11.054,0,0,1-2.976,2.944c-2.249.981-4.1-1.545-2.488-3.59a23.875,23.875,0,0,1,2.145-2.123,2.268,2.268,0,0,1,2.838.1" transform="translate(-13.618 -12.243)" fill="#1e1e1e"></path><path id="Path_39" data-name="Path 39" d="M52.818,7.944a17.306,17.306,0,0,1-3.255,1.494A2.221,2.221,0,0,1,47.5,5.589a13.773,13.773,0,0,1,3.765-1.441,2.262,2.262,0,0,1,1.549,3.8" transform="translate(-29.118 -2.589)" fill="#1e1e1e"></path></g></svg>