<svg xmlns="http://www.w3.org/2000/svg" xmlns:xlink="http://www.w3.org/1999/xlink" id="Group_51" data-name="Group 51" width="49.919" height="51.724" viewBox="0 0 49.919 51.724"><defs><clipPath id="clip-path"><rect id="Rectangle_106" data-name="Rectangle 106" width="49.919" height="51.724" fill="none"></rect></clipPath></defs><g id="Group_50" data-name="Group 50" clip-path="url(#clip-path)"><path id="Path_56" data-name="Path 56" d="M12.558,203.221h-.909l-1.265-.7c-2.871-3.319-6.889-6.309-9.647-9.647a2.566,2.566,0,0,1-.405-3.036,36.815,36.815,0,0,1,3.59-3.684,2.5,2.5,0,0,1,2.212-.394c.269.052.492.3.766.143l7.02-5.813a11.156,11.156,0,0,1,8.318-1.04,26.959,26.959,0,0,0,3.505.94c2.4.2,5.074-.21,7.461.015a4.6,4.6,0,0,1,3.346,1.906l6.424-5.8c2.551-2.31,8.9-.286,6.358,3.63L38.466,190.591c-2.716,2.177-8.71,2.741-12.116,2.835-2.18.06-4.735-.483-6.758.313a7.4,7.4,0,0,0-2.782,2.076c-.072.264.23.36.337.541a2.628,2.628,0,0,1-.1,3.018,30.377,30.377,0,0,1-3.713,3.56c-.262.129-.55.119-.776.285M48.079,177.5a3.435,3.435,0,0,0-4.2-.078L37.4,183.368l-.085.2a2.7,2.7,0,0,1-1.9,3.57l-15.285-.021a.815.815,0,0,1,.265-1.565l14.951-.1c.727-.318.46-1.547.194-2.129a3.146,3.146,0,0,0-2.622-1.721c-2.338-.184-4.933.187-7.275,0a38.138,38.138,0,0,1-4.089-1.063,9.018,9.018,0,0,0-7.526,1.471l-6.011,5.1,7.538,7.622a11.58,11.58,0,0,1,3.372-2.466c1.976-.8,3.207-.465,5.2-.452,3.737.025,10.648-.225,13.593-2.681l10.56-10.652a.941.941,0,0,0-.192-.98M5.26,187.279a1.659,1.659,0,0,0-.584.332,29.851,29.851,0,0,0-2.826,2.831.98.98,0,0,0-.125,1.035l9.821,9.877a.846.846,0,0,0,.986.174l3.258-3.205a.877.877,0,0,0,.02-1.031L6.2,187.611a1.122,1.122,0,0,0-.936-.332" transform="translate(-0.001 -151.497)"></path><path id="Path_57" data-name="Path 57" d="M175.214,37.544c2.7-.261,2.853,2.275,3.942,3.88a1.218,1.218,0,0,0,1.007.609c1.808.4,3.975.026,4.641,2.329.7,2.416-1.594,3.162-2.652,4.665-.6.856.232,2.757.26,3.8a2.84,2.84,0,0,1-3.662,2.744c-1.04-.316-2.608-1.7-3.617-1.439-1.854.478-3.194,2.722-5.485.945-1.756-1.362-.687-3.273-.575-4.984.1-1.507-1.474-2.049-2.319-3.132a2.814,2.814,0,0,1,1.51-4.546c.792-.2,2.662-.228,3.232-.606.448-.3,1.114-2.091,1.466-2.675a2.883,2.883,0,0,1,2.252-1.586m-.55,1.925a22.708,22.708,0,0,0-1.431,2.761c-1.238,2.017-3.052,1.136-4.767,1.8a1.236,1.236,0,0,0-.592,1.706,29.82,29.82,0,0,0,2.16,2.183,2.784,2.784,0,0,1,.659,2.177c-.053.991-.991,3.314.171,3.862,1.052.5,2.62-1,3.667-1.338,2.082-.676,2.941.88,4.588,1.365a1.23,1.23,0,0,0,1.668-.976c.053-.788-.454-2.15-.5-3.02A2.985,2.985,0,0,1,181,47.872c.714-.914,3.192-2.348,1.959-3.581-.884-.883-3.493-.05-4.894-1.672-.66-.764-1.256-2.753-1.763-3.186a1.255,1.255,0,0,0-1.635.036" transform="translate(-143.689 -32.461)"></path><path id="Path_58" data-name="Path 58" d="M310.276,50.054c.969.887-1.1,2.087-1.787,1.943a.8.8,0,0,1-.353-1.369c.407-.428,1.615-1.055,2.14-.574" transform="translate(-266.335 -43.149)"></path><path id="Path_59" data-name="Path 59" d="M276.266,13.367a.813.813,0,0,1,1.066.515c.173.547-.739,2.126-1.382,2.089-1.545-.09-.234-2.438.316-2.6" transform="translate(-238.081 -11.524)"></path><path id="Path_60" data-name="Path 60" d="M230.247.021c1.124-.233,1.227,1.535.943,2.262a.8.8,0,0,1-1.516-.114c-.1-.617-.186-1.991.573-2.148" transform="translate(-198.625 0)"></path><path id="Path_61" data-name="Path 61" d="M144.329,50.777a.842.842,0,0,1,.625-1.389,3.511,3.511,0,0,1,1.723,1.112.814.814,0,0,1-.713,1.122,6.084,6.084,0,0,1-1.635-.845" transform="translate(-124.669 -42.723)"></path><path id="Path_62" data-name="Path 62" d="M131.6,98.529c.59-.132,2.046-.165,2.148.645.141,1.111-1.23,1.04-1.97.953a.812.812,0,0,1-.179-1.6" transform="translate(-113.316 -85.17)"></path><path id="Path_63" data-name="Path 63" d="M322.343,99.865c-.334.365-2.136.381-2.436-.075-.879-1.338,1.819-1.722,2.424-1.011a.794.794,0,0,1,.012,1.086" transform="translate(-276.585 -85.145)"></path><path id="Path_64" data-name="Path 64" d="M181.291,13.44a1.128,1.128,0,0,1,.477-.016c.6.09,1.66,1.941.86,2.463-1.127.735-2.509-2.1-1.337-2.447" transform="translate(-156.439 -11.597)"></path></g></svg>