<svg preserveAspectRatio="xMidYMid meet" data-bbox="53 28 94 144" viewBox="53 28 94 144" height="200" width="200" xmlns="http://www.w3.org/2000/svg" data-type="color" role="presentation" aria-hidden="true"><defs><style>#comp-jsxp9m7v svg [data-color="1"] {fill: #B7884C;}</style></defs>
<g>
<path d="M128.806 172h-66.71c-1.675 0-3.032-1.342-3.032-3v-45h-3.032c-1.675 0-3.032-1.342-3.032-3V97c0-1.658 1.358-3 3.032-3h78.839c1.676 0 3.032 1.342 3.032 3v24c0 1.658-1.356 3-3.032 3h-3.032v45c0 1.658-1.357 3-3.033 3zm-63.677-6h60.645v-45c0-1.658 1.356-3 3.032-3h3.032v-18H59.065v18h3.032c1.675 0 3.032 1.342 3.032 3v45z" fill="#3940B2" data-color="1"></path>
<path d="M104.548 97h-6.065V61c0-3.308-2.72-6-6.065-6s-6.065 2.692-6.065 6v36H80.29V61c0-6.618 5.441-12 12.129-12s12.129 5.382 12.129 12v36z" fill="#3940B2" data-color="1"></path>
<path fill="#3940B2" d="M101.517 67v6H83.323v-6h18.194z" data-color="1"></path>
<path fill="#3940B2" d="M101.517 79v6H83.323v-6h18.194z" data-color="1"></path>
<path fill="#3940B2" d="M134.871 64v32.332h-6.065V64h6.065z" data-color="1"></path>
<path d="M147 106h-6.065V70c0-1.655-1.359-3-3.032-3h-21.226v29.332h-6.065V64c0-1.658 1.356-3 3.032-3h24.258c5.016 0 9.097 4.037 9.097 9v36z" fill="#3940B2" data-color="1"></path>
<path d="M131.839 64h-6.065V52c0-1.655-1.359-3-3.032-3s-3.032 1.345-3.032 3v12h-6.065V52c0-4.963 4.081-9 9.097-9s9.097 4.037 9.097 9v12z" fill="#3940B2" data-color="1"></path>
<path d="M68.161 96.332h-6.065V31c0-1.658 1.358-3 3.032-3h24.258c1.675 0 3.032 1.342 3.032 3v21h-6.065V34H68.161v62.332z" fill="#3940B2" data-color="1"></path>
<path fill="#3940B2" d="M74.226 43v6h-9.097v-6h9.097z" data-color="1"></path>
<path fill="#3940B2" d="M74.226 61v6h-9.097v-6h9.097z" data-color="1"></path>
<path fill="#3940B2" d="M74.226 79v6h-9.097v-6h9.097z" data-color="1"></path>
<path fill="#3940B2" d="M86.355 118v6H62.097v-6h24.258z" data-color="1"></path>
<path fill="#3940B2" d="M134.871 118v6h-18.194v-6h18.194z" data-color="1"></path>
</g>
</svg>
