<svg preserveAspectRatio="xMidYMid meet" data-bbox="33.999 48.5 131.998 103.001" viewBox="33.999 48.5 131.998 103.001" height="200" width="200" xmlns="http://www.w3.org/2000/svg" data-type="color" role="presentation" aria-hidden="true"><defs><style>#comp-jsxp99sc svg [data-color="1"] {fill: #B7884C;}</style></defs>
<g>
<path d="M163.778 66.026H133.96v-1.157c0-1.583-.758-3.101-2.08-4.165l-4.546-3.663c-1.199-.968-2.765-1.501-4.413-1.501H118.2c-1.674-4.123-5.719-7.04-10.434-7.04H45.258C39.051 48.5 34 53.553 34 59.765v16.074c0 5.756 4.338 10.514 9.914 11.182.517.169 2.676.975 3.768 2.966.855 1.559.904 3.584.148 6.019-.808 2.603-2.515 6.091-4.322 9.784-4.171 8.524-8.794 17.983-5.736 23.282a8.565 8.565 0 0 0-3.773 7.097v6.766c0 4.723 3.84 8.566 8.561 8.566h43.911c4.72 0 8.56-3.842 8.56-8.566v-6.766c0-4.723-3.84-8.566-8.56-8.566h-.956c-5.201 0-8.445-1.368-9.919-4.182-2.5-4.777.022-13.182 3.615-20.953l.036.002h16.154a2.22 2.22 0 0 0 2.052-1.372 2.225 2.225 0 0 0-.482-2.423c-4.62-4.624-1.982-10.505-1.444-11.572h12.238c4.375 0 8.173-2.512 10.035-6.169.102.014.205.024.31.024h4.809c1.647 0 3.214-.533 4.411-1.499l4.547-3.664c1.322-1.064 2.08-2.583 2.08-4.165v-1.158h29.818a2.222 2.222 0 0 0 2.222-2.223 2.218 2.218 0 0 0-2.219-2.223zm-73.189 70.142v6.766a4.124 4.124 0 0 1-4.116 4.12H42.561a4.123 4.123 0 0 1-4.118-4.12v-6.766a4.123 4.123 0 0 1 4.118-4.12h43.911a4.124 4.124 0 0 1 4.117 4.12zM71.66 125.482c.406.776.891 1.481 1.448 2.121H42.561c-.055 0-.11.003-.165.004-3.39-2.504 1.5-12.499 5.103-19.862 1.885-3.851 3.664-7.488 4.575-10.419 1.137-3.662.959-6.872-.532-9.542a9.484 9.484 0 0 0-.418-.68H82.61c-4.751 7.374-16.58 27.613-10.95 38.378zm19.469-27.458h-9.722c2.366-4.511 4.844-8.473 6.527-10.903l.011-.017h2.773c-.979 2.906-1.435 7.021.411 10.92zm23.453-22.186c0 3.76-3.058 6.819-6.815 6.819H45.258c-3.758 0-6.815-3.059-6.815-6.819V59.765c0-3.76 3.058-6.819 6.815-6.819h62.509c3.758 0 6.815 3.059 6.815 6.819v16.073zm14.935-4.208c0 .229-.155.486-.422.702l-4.549 3.666c-.406.327-.998.515-1.624.515h-3.918c.013-.223.022-.448.022-.674V59.986h3.897c.626 0 1.218.188 1.626.517l4.547 3.665c.268.216.422.472.422.702v6.76z" fill="#1F6D23" data-color="1"></path>
<path d="M70.262 61.68H48.503a2.223 2.223 0 0 0 0 4.446h21.759a2.222 2.222 0 0 0 0-4.446z" fill="#1F6D23" data-color="1"></path>
<path d="M70.262 69.477H48.503a2.223 2.223 0 0 0 0 4.446h21.759a2.222 2.222 0 0 0 0-4.446z" fill="#1F6D23" data-color="1"></path>
</g>
</svg>
