<svg preserveAspectRatio="xMidYMid meet" data-bbox="34.5 64 131 72" viewBox="34.5 64 131 72" height="200" width="200" xmlns="http://www.w3.org/2000/svg" data-type="color" role="presentation" aria-hidden="true"><defs><style>#comp-jsxp9uhy svg [data-color="1"] {fill: #B7884C;}</style></defs>
<g>
<path d="M65.325 78.472c-9.094 0-16.492 7.47-16.492 16.653s7.398 16.653 16.492 16.653c9.094 0 16.492-7.47 16.492-16.653 0-9.184-7.397-16.653-16.492-16.653zm0 28.838c-6.655 0-12.068-5.466-12.068-12.186s5.413-12.186 12.068-12.186c6.655 0 12.068 5.466 12.068 12.186S71.98 107.31 65.325 107.31z" fill="#1F6D23" data-color="1"></path>
<path d="M163.288 121.783h-51.142V95.124C112.146 77.963 98.318 64 81.321 64H65.325C48.328 64 34.5 77.963 34.5 95.124v18.975c0 6.701 5.398 12.151 12.033 12.151h100.778v7.516c0 1.233.991 2.234 2.212 2.234h13.765c1.221 0 2.212-1 2.212-2.234v-9.75a2.223 2.223 0 0 0-2.212-2.233zM81.321 68.467c14.558 0 26.401 11.959 26.401 26.657v26.659H96.149V95.124a31.198 31.198 0 0 0-14.931-26.657h.103zm-42.397 45.632V95.124c0-14.698 11.843-26.657 26.401-26.657 14.556 0 26.4 11.959 26.4 26.657v26.659H46.533c-4.196 0-7.609-3.446-7.609-7.684zm122.152 17.434h-9.341v-5.283h9.341v5.283z" fill="#1F6D23" data-color="1"></path>
</g>
</svg>
