<?xml version="1.0" encoding="UTF-8"?>
<svg id="Layer_2" data-name="Layer 2" xmlns="http://www.w3.org/2000/svg" viewBox="0 0 1136 342">
  <defs>
    <style>
      .cls-1 {
        fill: #ff9000;
      }

      .cls-2 {
        fill: #fff;
        stroke: #013148;
        stroke-miterlimit: 10;
        stroke-width: 16px;
      }
    </style>
  </defs>
  <g id="Layer_1-2" data-name="Layer 1">
    <g>
      <rect class="cls-2" x="8" y="8" width="1120" height="326" rx="48" ry="48"/>
      <g>
        <path class="cls-1" d="M452.21,274.55c7.57,8.46,19.15,12.75,34.41,12.75.16,0,.33,0,.5,0,31.65-.19,47.6-18.01,47.4-52.95-.16-27.75-9.56-44.93-38.68-70.71-26.71-23.49-35.77-38.44-35.89-59.23-.16-28.29,17.24-32.63,27.63-32.69.08,0,.15,0,.23,0,10.42,0,27.62,4.36,27.79,33.05l.02,3.87,17.59-.11v-.86c-.11-17.32-4.02-30.45-11.64-39.05-7.56-8.53-19.14-12.79-34.59-12.72-31.38.19-47.19,17.56-47,51.63.15,25.66,10.05,43,39.24,68.72,26.94,23.59,35.63,38.6,35.77,61.75.17,29.25-17.77,33.72-28.48,33.79-.08,0-2.87,0-2.95,0-10.01,0-26.52-4.35-26.68-32.97l-.04-7.52-16.4.11.03,4.19c.1,17.25,4.05,30.35,11.73,38.94Z"/>
        <polygon class="cls-1" points="590.43 75.07 591.59 285.76 610.39 285.64 609.16 75.3 649.13 75.06 649.04 58.63 550.51 59.21 550.6 75.3 590.43 75.07"/>
        <path class="cls-1" d="M719.84,286.91c.17,0-1.29,0-1.12,0,15.71-.09,27.63-4.54,35.43-13.23,7.84-8.73,11.76-21.86,11.66-39.01l-1.03-175.41-17.76.11,1.03,177.89c.06,10.82-2.31,18.84-7.25,24.52-4.84,5.57-11.8,8.41-20.68,8.47-.08,0-.15,0-.23,0-10.52,0-27.9-4.3-28.07-32.65l-1.06-178.34-20.07.12,1.05,175.76c.2,34.36,16.39,51.78,48.09,51.78Z"/>
        <path class="cls-1" d="M892.51,232.26l-.72-123.02c-.2-34.72-15.41-50.76-47.83-50.61l-48.91.29,1.32,227.86,48.91-.29c16.12-.1,28.18-4.39,35.84-12.76,7.66-8.37,11.49-24.34,11.39-41.47ZM843.66,270.1h0l-28.65.17-1.13-194.97,28.65-.17c9.08-.02,16.17,2.71,21.17,8.22,5.1,5.62,7.61,13.6,7.67,24.42l.74,129.36c.17,28.54-17.75,32.91-28.45,32.98Z"/>
        <rect class="cls-1" x="925.53" y="58.34" width="19.82" height="228.03" transform="translate(-1.01 5.58) rotate(-.34)"/>
        <path class="cls-1" d="M1030.81,55.94c-.17,0-.33,0-.5,0-15.82.09-27.92,4.59-35.98,13.35-8.11,8.83-12.18,21.95-12.08,38.99l.74,128.15c.14,23.64,8.62,51.76,48.15,51.76.17,0,.34,0,.51,0,15.82-.09,27.92-4.58,35.97-13.35,8.11-8.83,12.18-21.95,12.08-38.99l-.74-128.15c-.14-23.64-8.62-51.76-48.15-51.76ZM1053.07,262.88c-4.97,5.68-12.01,8.58-20.92,8.63-.08,0-.17,0-.25,0-8.8,0-15.78-2.82-20.77-8.38-5.07-5.66-7.68-13.94-7.74-24.61l-.77-132.58c-.17-29.93,19.78-33.28,28.37-33.33.07,0,.14,0,.21,0,8.7,0,28.38,3.3,28.55,32.99l.77,132.58c.06,10.67-2.44,18.98-7.45,24.7Z"/>
        <path class="cls-1" d="M128.72,124.24c0-8.9-3.42-16.35-9.44-21.35,3.15-4.49,4.93-10.11,4.93-16.25,0-8.41-3.47-27.98-35.64-27.98h-31.86v97.53h33.69c23.64,0,38.32-12.24,38.32-31.94ZM102.33,124.06c0,2.7,0,7.74-13.68,7.74h-5.9v-14.22h5.9c13.68,0,13.68,4.38,13.68,6.49ZM86.63,93.19h-3.87v-10.16h4.25c11.05,0,11.05,2.45,11.05,4.82,0,1.86,0,5.34-11.43,5.34Z"/>
        <path class="cls-1" d="M171.39,156.16h26.04v-37.7l28.65-59.82h-28.52l-12.22,27.69-.1.24c-.21.51-.42,1.02-.63,1.54-.07-.17-.14-.34-.21-.5l-12.76-28.95h-28.73l28.5,59.81v37.71Z"/>
        <polygon class="cls-1" points="271.19 156.16 297.23 156.16 297.23 84.04 317.03 84.04 317.03 58.65 252.4 58.65 252.4 84.04 271.19 84.04 271.19 156.16"/>
        <polygon class="cls-1" points="415.32 131.78 378.27 131.78 378.27 118.58 403.3 118.58 403.3 93.18 378.27 93.18 378.27 84.04 412.36 84.04 412.36 58.65 352.23 58.65 352.23 156.16 415.32 156.16 415.32 131.78"/>
        <polygon class="cls-1" points="55.71 211.9 75.37 211.9 75.37 286.53 99.23 286.53 99.23 211.9 118.89 211.9 118.89 189.71 55.71 189.71 55.71 211.9"/>
        <path class="cls-1" d="M158.52,187.94c-25.14,0-42.03,20.08-42.03,49.96s16.89,50.73,42.03,50.73,42.16-20.39,42.16-50.73-16.94-49.96-42.16-49.96ZM158.52,265.86c-13.22,0-17.94-14.45-17.94-27.97,0-17.03,6.7-27.19,17.94-27.19,13.32,0,18.06,14.05,18.06,27.19s-4.75,27.97-18.06,27.97Z"/>
        <path class="cls-1" d="M224.67,188.93l-32.42,97.6h24.77l7.93-25.42h20.57l7.81,25.42h25.3l-32.42-97.6h-21.55ZM231.79,238.74l1.27-4.11c.76-2.46,1.5-4.89,2.22-7.31.77,2.5,1.53,4.92,2.3,7.29l1.27,4.13h-7.07Z"/>
        <path class="cls-1" d="M327.64,229.13l-12.09-5.35c-7.15-2.99-9.69-4.61-9.69-7.79,0-5.07,6.19-5.62,8.85-5.62,5.26,0,10.22,2.09,14.33,6.05l5.11,4.92,14.11-17.42-4.21-4.27c-7.73-7.84-18.14-12.15-29.34-12.15-18.69,0-32.79,12.52-32.79,29.13,0,12.58,7,21.98,20.71,27.91l12.18,5.46c8.5,3.82,9.89,5.04,9.89,8.73,0,6.35-7.61,7.04-10.88,7.04-6.87,0-13.71-2.99-18.74-8.21l-5.02-5.19-14.45,17.15,4,4.35c8.77,9.52,20.87,14.77,34.08,14.77,20.33,0,35.08-12.96,35.08-30.81s-12.1-24.85-21.13-28.7Z"/>
        <polygon class="cls-1" points="353.29 189.97 353.29 211.86 372.69 211.86 372.69 285.52 396.24 285.52 396.24 211.86 415.64 211.86 415.64 189.97 353.29 189.97"/>
      </g>
    </g>
  </g>
</svg>